<svg xmlns="http://www.w3.org/2000/svg" viewBox="0 0 340 384" width="340" height="384" role="img" aria-label="PassTo pass card">
  <defs>
    
    <linearGradient id="g-selfie-expiring-custom" x1="0%" y1="0%" x2="100%" y2="100%">
      <stop offset="0%" stop-color="#D6B89A"></stop>
      <stop offset="100%" stop-color="#A07954"></stop>
    </linearGradient>
    <filter id="pass-shadow" x="-20%" y="-10%" width="140%" height="140%">
      <feDropShadow dx="0" dy="1" stdDeviation="1" flood-color="#0B1220" flood-opacity="0.06"></feDropShadow>
      <feDropShadow dx="0" dy="8" stdDeviation="12" flood-color="#0B1220" flood-opacity="0.18"></feDropShadow>
      <feDropShadow dx="0" dy="24" stdDeviation="24" flood-color="#0B1220" flood-opacity="0.10"></feDropShadow>
    </filter>
    <clipPath id="card-clip">
      <rect x="0" y="0" width="340" height="384" rx="22"></rect>
    </clipPath>
  </defs>

  
  <g filter="url(#pass-shadow)">
    <rect x="0" y="0" width="340" height="384" rx="22" fill="#FFFFFF" stroke="#E4E7EC" stroke-width="1"></rect>
  </g>

  <g clip-path="url(#card-clip)">

    
    <rect x="0" y="0" width="340" height="28" fill="#FBEFD2"></rect>
    <text x="170" y="18" text-anchor="middle" font-family="&#34;Public Sans&#34;, Inter, ui-sans-serif, system-ui, -apple-system, sans-serif" font-weight="700" font-size="10" letter-spacing="0.1em" fill="#C8830C">EXPIRES IN 47 DAYS · TAP TO RENEW</text>

    
    
    <rect x="18" y="44" width="22" height="22" rx="5" fill="#0B1220"></rect>
    <text x="29" y="60.5" text-anchor="middle" font-family="Inter, ui-sans-serif, system-ui, -apple-system, sans-serif" font-weight="700" font-size="15" letter-spacing="-0.6" fill="#FFFFFF">P</text>
    <rect x="22.5" y="62" width="13" height="1.5" rx="0.75" fill="#2FB069"></rect>
    <text x="46" y="59.5" font-family="Inter, ui-sans-serif, system-ui, -apple-system, sans-serif" font-weight="600" font-size="14" letter-spacing="-0.14" fill="#0B1220">PassTo</text>

    
    <circle cx="254" cy="55" r="4" fill="#2FB069"></circle>
  <circle cx="254" cy="55" r="7" fill="#2FB069" fill-opacity="0.18"></circle>
    <text x="264" y="59" font-family="&#34;Public Sans&#34;, Inter, ui-sans-serif, system-ui, -apple-system, sans-serif" font-weight="700" font-size="10" letter-spacing="0.08em" fill="#0F5B36">VERIFIED</text>

    
    <text x="18" y="92" font-family="&#34;Public Sans&#34;, Inter, ui-sans-serif, system-ui, -apple-system, sans-serif" font-weight="600" font-size="9.5" letter-spacing="0.1em" fill="#4B5567">LICENSED PRACTICAL NURSE</text>

    
    
    <clipPath id="clip-g-selfie-expiring-custom-104"><rect x="18" y="104" width="64" height="64" rx="14"></rect></clipPath>
    <rect x="18" y="104" width="64" height="64" rx="14" fill="url(#g-selfie-expiring-custom)" stroke="#E4E7EC" stroke-width="1"></rect>
    <g clip-path="url(#clip-g-selfie-expiring-custom-104)">
      <circle cx="50" cy="124.48" r="12.16" fill="rgba(255,255,255,0.4)"></circle>
      <ellipse cx="50" cy="176" rx="24.32" ry="14.72" fill="rgba(255,255,255,0.35)"></ellipse>
    </g>

    <text x="96" y="126" font-family="Inter, ui-sans-serif, system-ui, -apple-system, sans-serif" font-weight="600" font-size="19" letter-spacing="-0.19" fill="#0B1220">Aisha Mensah</text>
    <text x="96" y="146" font-family="&#34;Public Sans&#34;, Inter, ui-sans-serif, system-ui, -apple-system, sans-serif" font-weight="400" font-size="12" fill="#4B5567">San Diego, CA</text>

    
    <line x1="18" y1="182" x2="322" y2="182" stroke="#E4E7EC" stroke-width="1"></line>

    
    <text x="18" y="196" font-family="&#34;Public Sans&#34;, Inter, ui-sans-serif, system-ui, -apple-system, sans-serif" font-weight="600" font-size="9.5" letter-spacing="0.1em" fill="#4B5567">LICENSE №</text>
    <text x="18" y="214" font-family="&#34;IBM Plex Mono&#34;, ui-monospace, &#34;SF Mono&#34;, Menlo, Consolas, monospace" font-weight="500" font-size="12.5" letter-spacing="0.06em" fill="#0B1220">LPN 284-991-37</text>
    <text x="174" y="196" font-family="&#34;Public Sans&#34;, Inter, ui-sans-serif, system-ui, -apple-system, sans-serif" font-weight="600" font-size="9.5" letter-spacing="0.1em" fill="#4B5567">STATE</text>
    <text x="174" y="214" font-family="&#34;IBM Plex Mono&#34;, ui-monospace, &#34;SF Mono&#34;, Menlo, Consolas, monospace" font-weight="500" font-size="12.5" letter-spacing="0.06em" fill="#0B1220">CALIFORNIA</text>

    
    <line x1="18" y1="224" x2="322" y2="224" stroke="#E4E7EC" stroke-width="1"></line>

    
    <text x="18" y="238" font-family="&#34;Public Sans&#34;, Inter, ui-sans-serif, system-ui, -apple-system, sans-serif" font-weight="600" font-size="9.5" letter-spacing="0.1em" fill="#4B5567">ISSUED</text>
    <text x="18" y="256" font-family="&#34;IBM Plex Mono&#34;, ui-monospace, &#34;SF Mono&#34;, Menlo, Consolas, monospace" font-weight="500" font-size="12.5" letter-spacing="0.06em" fill="#0B1220">14 MAR 2024</text>
    <text x="174" y="238" font-family="&#34;Public Sans&#34;, Inter, ui-sans-serif, system-ui, -apple-system, sans-serif" font-weight="600" font-size="9.5" letter-spacing="0.1em" fill="#4B5567">EXPIRES</text>
    <text x="174" y="256" font-family="&#34;IBM Plex Mono&#34;, ui-monospace, &#34;SF Mono&#34;, Menlo, Consolas, monospace" font-weight="500" font-size="12.5" letter-spacing="0.06em" fill="#0B1220">09 JUL 2026</text>

    
    <rect x="0" y="288" width="340" height="96" fill="#FAF8F4"></rect>
    <line x1="0" y1="288" x2="340" y2="288" stroke="#E4E7EC" stroke-width="1"></line>

    <text x="18" y="310" font-family="&#34;Public Sans&#34;, Inter, ui-sans-serif, system-ui, -apple-system, sans-serif" font-weight="600" font-size="9.5" letter-spacing="0.1em" fill="#0F5B36">LAST VERIFIED</text>
    <text x="18" y="328" font-family="&#34;IBM Plex Mono&#34;, ui-monospace, &#34;SF Mono&#34;, Menlo, Consolas, monospace" font-weight="500" font-size="11" letter-spacing="0.03em" fill="#0B1220">14 May 2026 · 11:18 AM PT<tspan fill="#4B5567"> · 4 min ago</tspan></text>
    <text x="18" y="346" font-family="&#34;Public Sans&#34;, Inter, ui-sans-serif, system-ui, -apple-system, sans-serif" font-weight="400" font-size="10.5" fill="#2E3849">with <tspan font-weight="600" fill="#0B1220">California Board of Vocational Nursing</tspan> &amp; Psychiatric Technicians</text>

    
    <rect x="266" y="312" width="56" height="56" rx="8" fill="white" stroke="#E4E7EC" stroke-width="1"></rect>
    <g transform="translate(270, 316)">
      <rect x="0" y="0" width="48" height="48" fill="white"></rect><rect x="2" y="2" width="12" height="12" fill="#0B1220"></rect><rect x="6" y="6" width="4" height="4" fill="white"></rect><rect x="34" y="2" width="12" height="12" fill="#0B1220"></rect><rect x="38" y="6" width="4" height="4" fill="white"></rect><rect x="2" y="34" width="12" height="12" fill="#0B1220"></rect><rect x="6" y="38" width="4" height="4" fill="white"></rect><rect x="18" y="4" width="3" height="3" fill="#0B1220"></rect><rect x="24" y="2" width="3" height="3" fill="#0B1220"></rect><rect x="28" y="6" width="3" height="3" fill="#0B1220"></rect><rect x="18" y="10" width="3" height="3" fill="#0B1220"></rect><rect x="24" y="14" width="3" height="3" fill="#0B1220"></rect><rect x="32" y="20" width="3" height="3" fill="#0B1220"></rect><rect x="38" y="20" width="3" height="3" fill="#0B1220"></rect><rect x="4" y="20" width="3" height="3" fill="#0B1220"></rect><rect x="10" y="22" width="3" height="3" fill="#0B1220"></rect><rect x="16" y="20" width="3" height="3" fill="#0B1220"></rect><rect x="22" y="22" width="3" height="3" fill="#0B1220"></rect><rect x="28" y="20" width="3" height="3" fill="#0B1220"></rect><rect x="20" y="28" width="3" height="3" fill="#0B1220"></rect><rect x="26" y="32" width="3" height="3" fill="#0B1220"></rect><rect x="32" y="36" width="3" height="3" fill="#0B1220"></rect><rect x="38" y="32" width="3" height="3" fill="#0B1220"></rect><rect x="42" y="38" width="3" height="3" fill="#0B1220"></rect><rect x="20" y="36" width="3" height="3" fill="#0B1220"></rect><rect x="26" y="40" width="3" height="3" fill="#0B1220"></rect><rect x="12" y="28" width="3" height="3" fill="#0B1220"></rect><rect x="14" y="34" width="3" height="3" fill="#0B1220"></rect><rect x="18" y="42" width="3" height="3" fill="#0B1220"></rect><rect x="36" y="42" width="3" height="3" fill="#0B1220"></rect><rect x="40" y="28" width="3" height="3" fill="#0B1220"></rect>
    </g>

  </g>
</svg>