<svg xmlns="http://www.w3.org/2000/svg" viewBox="0 0 340 460" width="340" height="460" role="img" aria-label="PassTo share flow">
  <defs>
    <filter id="share-shadow" x="-20%" y="-10%" width="140%" height="140%">
      <feDropShadow dx="0" dy="1" stdDeviation="1" flood-color="#0B1220" flood-opacity="0.06"></feDropShadow>
      <feDropShadow dx="0" dy="8" stdDeviation="12" flood-color="#0B1220" flood-opacity="0.18"></feDropShadow>
      <feDropShadow dx="0" dy="24" stdDeviation="24" flood-color="#0B1220" flood-opacity="0.10"></feDropShadow>
    </filter>
    <clipPath id="share-clip">
      <rect x="0" y="0" width="340" height="460" rx="22"></rect>
    </clipPath>
  </defs>

  <g filter="url(#share-shadow)">
    <rect x="0" y="0" width="340" height="460" rx="22" fill="#0B1220"></rect>
  </g>

  <g clip-path="url(#share-clip)">
    
    <rect x="159" y="32" width="22" height="22" rx="5" fill="#FAF8F4"></rect>
    <text x="170" y="48.5" text-anchor="middle" font-family="Inter, ui-sans-serif, system-ui, -apple-system, sans-serif" font-weight="700" font-size="15" letter-spacing="-0.6" fill="#0B1220">P</text>
    <rect x="163.5" y="50" width="13" height="1.5" rx="0.75" fill="#2FB069"></rect>

    
    <circle cx="132" cy="78" r="4" fill="#2FB069"></circle>
  <circle cx="132" cy="78" r="7" fill="#2FB069" fill-opacity="0.18"></circle>
    <text x="142" y="82" font-family="&#34;Public Sans&#34;, Inter, ui-sans-serif, system-ui, -apple-system, sans-serif" font-weight="700" font-size="11" letter-spacing="0.1em" fill="#2FB069">VERIFIED LIVE</text>

    
    <text x="170" y="118" text-anchor="middle" font-family="Inter, ui-sans-serif, system-ui, -apple-system, sans-serif" font-weight="600" font-size="22" letter-spacing="-0.4" fill="#FAF8F4">Maria L. Reyes</text>
    <text x="170" y="138" text-anchor="middle" font-family="&#34;Public Sans&#34;, Inter, ui-sans-serif, system-ui, -apple-system, sans-serif" font-weight="400" font-size="12" fill="#B6BCC9">Registered Nurse · New York</text>

    
    <rect x="70" y="160" width="200" height="200" rx="16" fill="#FFFFFF"></rect>
    <g transform="translate(82, 172)">
      <rect x="0" y="0" width="176" height="176" fill="white"></rect><rect x="7.333333333333333" y="7.333333333333333" width="44" height="44" fill="#0B1220"></rect><rect x="22" y="22" width="14.666666666666666" height="14.666666666666666" fill="white"></rect><rect x="124.66666666666666" y="7.333333333333333" width="44" height="44" fill="#0B1220"></rect><rect x="139.33333333333331" y="22" width="14.666666666666666" height="14.666666666666666" fill="white"></rect><rect x="7.333333333333333" y="124.66666666666666" width="44" height="44" fill="#0B1220"></rect><rect x="22" y="139.33333333333331" width="14.666666666666666" height="14.666666666666666" fill="white"></rect><rect x="66" y="14.666666666666666" width="11" height="11" fill="#0B1220"></rect><rect x="88" y="7.333333333333333" width="11" height="11" fill="#0B1220"></rect><rect x="102.66666666666666" y="22" width="11" height="11" fill="#0B1220"></rect><rect x="66" y="36.666666666666664" width="11" height="11" fill="#0B1220"></rect><rect x="88" y="51.33333333333333" width="11" height="11" fill="#0B1220"></rect><rect x="117.33333333333333" y="73.33333333333333" width="11" height="11" fill="#0B1220"></rect><rect x="139.33333333333331" y="73.33333333333333" width="11" height="11" fill="#0B1220"></rect><rect x="14.666666666666666" y="73.33333333333333" width="11" height="11" fill="#0B1220"></rect><rect x="36.666666666666664" y="80.66666666666666" width="11" height="11" fill="#0B1220"></rect><rect x="58.666666666666664" y="73.33333333333333" width="11" height="11" fill="#0B1220"></rect><rect x="80.66666666666666" y="80.66666666666666" width="11" height="11" fill="#0B1220"></rect><rect x="102.66666666666666" y="73.33333333333333" width="11" height="11" fill="#0B1220"></rect><rect x="73.33333333333333" y="102.66666666666666" width="11" height="11" fill="#0B1220"></rect><rect x="95.33333333333333" y="117.33333333333333" width="11" height="11" fill="#0B1220"></rect><rect x="117.33333333333333" y="132" width="11" height="11" fill="#0B1220"></rect><rect x="139.33333333333331" y="117.33333333333333" width="11" height="11" fill="#0B1220"></rect><rect x="154" y="139.33333333333331" width="11" height="11" fill="#0B1220"></rect><rect x="73.33333333333333" y="132" width="11" height="11" fill="#0B1220"></rect><rect x="95.33333333333333" y="146.66666666666666" width="11" height="11" fill="#0B1220"></rect><rect x="44" y="102.66666666666666" width="11" height="11" fill="#0B1220"></rect><rect x="51.33333333333333" y="124.66666666666666" width="11" height="11" fill="#0B1220"></rect><rect x="66" y="154" width="11" height="11" fill="#0B1220"></rect><rect x="132" y="154" width="11" height="11" fill="#0B1220"></rect><rect x="146.66666666666666" y="102.66666666666666" width="11" height="11" fill="#0B1220"></rect>
    </g>

    
    <text x="170" y="392" text-anchor="middle" font-family="&#34;Public Sans&#34;, Inter, ui-sans-serif, system-ui, -apple-system, sans-serif" font-weight="600" font-size="9.5" letter-spacing="0.1em" fill="#B6BCC9">LICENSE №</text>
    <text x="170" y="412" text-anchor="middle" font-family="&#34;IBM Plex Mono&#34;, ui-monospace, &#34;SF Mono&#34;, Menlo, Consolas, monospace" font-weight="500" font-size="14" letter-spacing="0.08em" fill="#FAF8F4">RN 551244-1</text>

    
    <text x="170" y="438" text-anchor="middle" font-family="&#34;Public Sans&#34;, Inter, ui-sans-serif, system-ui, -apple-system, sans-serif" font-weight="400" font-size="10.5" fill="#B6BCC9">Re-verified 2 min ago · NYSED</text>
  </g>
</svg>